<svg width="32" height="32" viewBox="0 0 32 32" fill="none" xmlns="http://www.w3.org/2000/svg">
<path d="M2.93934 14.9393C2.35355 15.5251 2.35355 16.4749 2.93934 17.0607L12.4853 26.6066C13.0711 27.1924 14.0208 27.1924 14.6066 26.6066C15.1924 26.0208 15.1924 25.0711 14.6066 24.4853L6.12132 16L14.6066 7.51472C15.1924 6.92893 15.1924 5.97918 14.6066 5.3934C14.0208 4.80761 13.0711 4.80761 12.4853 5.3934L2.93934 14.9393ZM28 17.5C28.8284 17.5 29.5 16.8284 29.5 16C29.5 15.1716 28.8284 14.5 28 14.5V17.5ZM4 17.5H28V14.5H4V17.5Z" fill="black"/>
</svg>
